<svg width="108" height="57" fill="none" xmlns="http://www.w3.org/2000/svg"><path d="M.646 51.646a.5.5 0 000 .708l3.182 3.181a.5.5 0 10.708-.707L1.707 52l2.829-2.828a.5.5 0 10-.708-.707l-3.182 3.18zM107.444 1.23a.5.5 0 00-.888-.46l.888.46zM1 52.5c44.38 0 89.4-18.352 106.444-51.27l-.888-.46C89.759 33.211 45.203 51.5 1 51.5v1z" fill="#fff"/><path d="M.646 51.646a.5.5 0 000 .708l3.182 3.181a.5.5 0 10.708-.707L1.707 52l2.829-2.828a.5.5 0 10-.708-.707l-3.182 3.18zM107.444 1.23a.5.5 0 00-.888-.46l.888.46zM1 52.5c44.38 0 89.4-18.352 106.444-51.27l-.888-.46C89.759 33.211 45.203 51.5 1 51.5v1z" fill="url(#paint0_linear_1324_3)"/><defs><linearGradient id="paint0_linear_1324_3" x1="1" y1="26.5" x2="107" y2="26.5" gradientUnits="userSpaceOnUse"><stop stop-color="#FFBB45"/><stop offset="1" stop-color="#FFCC73"/></linearGradient></defs></svg>